# RL Studio Planar Mannequin Head
v 0.0000 1.4000 0.0000
v 0.6000 1.2000 0.3000
v -0.6000 1.2000 0.3000
v 0.7000 1.1000 -0.4000
v -0.7000 1.1000 -0.4000
v 0.0000 1.0000 -0.8000
v 0.0000 0.8000 0.7500
v 0.5500 0.7500 0.6000
v -0.5500 0.7500 0.6000
v 0.7500 0.6000 0.1000
v -0.7500 0.6000 0.1000
v 0.0000 0.4500 0.9500
v 0.0000 0.6000 0.7200
v 0.5500 0.3000 0.5500
v -0.5500 0.3000 0.5500
v 0.0000 0.1000 0.6500
v 0.0000 -0.1000 0.6000
v 0.4000 -0.1500 0.4500
v -0.4000 -0.1500 0.4500
v 0.5500 -0.1000 -0.1000
v -0.5500 -0.1000 -0.1000
v 0.2000 -0.5000 0.4500
v -0.2000 -0.5000 0.4500
v 0.0000 -0.5500 0.5000
v 0.3000 -1.0000 0.2000
v -0.3000 -1.0000 0.2000
v 0.0000 -1.0000 -0.4000
f 1 2 8 7
f 1 7 9 3
f 1 3 5 6
f 1 6 4 2
f 2 4 10
f 3 11 5
f 8 2 10
f 9 11 3
f 7 8 13
f 7 13 9
f 13 8 14
f 13 15 9
f 13 12 14
f 13 15 12
f 12 16 14
f 12 15 16
f 16 18 14
f 16 15 19
f 16 17 18
f 16 19 17
f 17 24 18
f 17 19 24
f 18 24 22
f 19 23 24
f 18 22 20
f 19 21 23
f 14 18 20
f 15 21 19
f 10 14 20
f 11 21 15
f 4 6 20
f 5 21 6
f 6 21 20
f 22 24 25
f 23 26 24
f 20 22 25
f 21 26 23
f 20 25 27
f 21 27 26
f 20 27 6
f 21 6 27
