# RL Studio Mannequin Body
v 0.0000 1.8000 0.0000
v 0.2000 1.6000 0.2000
v -0.2000 1.6000 0.2000
v 0.0000 1.4000 0.0000
v 0.0000 1.3000 0.0000
v 0.6000 1.2000 0.0000
v -0.6000 1.2000 0.0000
v 0.4000 0.7000 0.2500
v -0.4000 0.7000 0.2500
v 0.3500 0.7000 -0.2500
v -0.3500 0.7000 -0.2500
v 0.3500 0.1000 0.2000
v -0.3500 0.1000 0.2000
v 0.3000 0.1000 -0.2000
v -0.3000 0.1000 -0.2000
v 0.0000 -0.2000 0.0000
v 0.7000 0.6000 0.0000
v 0.7500 0.0000 0.1000
v 0.8000 -0.2000 0.1000
v -0.7000 0.6000 0.0000
v -0.7500 0.0000 0.1000
v -0.8000 -0.2000 0.1000
v 0.3000 -0.8000 0.0000
v 0.3000 -1.5000 0.0000
v 0.3000 -1.6000 0.3000
v -0.3000 -0.8000 0.0000
v -0.3000 -1.5000 0.0000
v -0.3000 -1.6000 0.3000
f 1 2 3
f 2 4 3
f 1 3 4
f 1 4 2
f 5 6 8 9
f 5 9 7
f 5 7 11 10
f 5 10 6
f 8 6 10
f 9 11 7
f 8 10 14 12
f 9 13 15 11
f 8 12 13 9
f 10 11 15 14
f 12 14 16
f 13 16 15
f 12 16 13
f 14 15 16
f 6 17 18
f 17 18 19
f 7 20 21
f 20 21 22
f 12 23 24
f 23 24 25
f 13 26 27
f 26 27 28
